<?xml version="1.0" encoding="UTF-8"?>
<svg width="640" height="480" xmlns="http://www.w3.org/2000/svg" xmlns:svg="http://www.w3.org/2000/svg">
 <!-- Created with SVG-edit - http://svg-edit.googlecode.com/ -->

 <g>
  <title>Layer 1</title>
  <path fill="#007fff" stroke="#000000" stroke-width="5" stroke-dasharray="null" stroke-linejoin="null" stroke-linecap="null" d="m132,106c48,65 48,65 48,65c0,0 8,183 8,183c0,0 -106,-54 -106,-54c0,0 4,-146 4,-146c0,0 45,99 45,99c0,0 -8,26 -8,26c0,0 44,20 44,20c0,0 -35,-193 -35,-193z" id="svg_12"/>
  <path fill="#7f7f00" stroke="#000000" stroke-width="5" stroke-dasharray="null" stroke-linejoin="null" stroke-linecap="null" d="m248,105l-39,117c0,0 39,116 39,116c0,0 0,-91 0,-91c0,0 49,-1 49,-1c0,0 -12,71 -12,71c0,0 67,-113 67,-114c0,-1 -104,-98 -104,-98z" id="svg_13"/>
  <path fill="none" stroke="#000000" stroke-width="5" stroke-dasharray="null" stroke-linejoin="null" stroke-linecap="null" d="m261,199l2,-32l40,32l-42,0z" id="svg_14"/>
  <path fill="#ff7f00" stroke="#000000" stroke-width="5" stroke-dasharray="null" stroke-linejoin="null" stroke-linecap="null" d="m283,104l248,42l-80,37l25,127l-95,-32l43,-99l-49,8l-92,-83z" id="svg_15"/>
 </g>
</svg>